{"title":"[AnimeRG-JRR] Sword Art Online II - 22 [Eng Subbed][SD].mp4","uid":11652508,"size":44519711,"categoryP":"video","categoryS":"tv_shows","magnet":"?xt=urn:btih:f6d87024e10ee877ecd2bf00cb651b7bf732ff08&amp;dn=%5BAnimeRG-JRR%5D+Sword+Art+Online+II+-+22+%5BEng+Subbed%5D%5BSD%5D.mp4&amp;tr=udp%3A%2F%2Ftracker.openbittorrent.com%3A80&amp;tr=udp%3A%2F%2Fopen.demonii.com%3A1337&amp;tr=udp%3A%2F%2Ftracker.coppersurfer.tk%3A6969&amp;tr=udp%3A%2F%2Fexodus.desync.com%3A6969","seeders":1,"leechers":0,"uploader":"JRRtv","files":1,"time":1417889246,"description":"[b]General[/b] \nFormat : MPEG-4 \nFile size : 42.5 MiB \nDuration : 23mn 40s \nOverall bit rate mode : Variable \nOverall bit rate : 251 Kbps \n\n\n[b]Video[/b] \nFormat : AVC \nFormat/Info : Advanced Video Codec \nFormat profile : &lt;a class=&quot;__cf_email__&quot; href=&quot;/cdn-cgi/l/email-protection&quot; data-cfemail=&quot;125a7b757a525e213c22&quot;&gt;[email&amp;#160;protected]&lt;/a&gt;&lt;script cf-hash='f9e31' type=&quot;text/javascript&quot;&gt;\n/* &lt;![CDATA[ */!function(){try{var t=&quot;currentScript&quot;in document?document.currentScript:function(){for(var t=document.getElementsByTagName(&quot;script&quot;),e=t.length;e--;)if(t[e].getAttribute(&quot;cf-hash&quot;))return t[e]}();if(t&amp;&amp;t.previousSibling){var e,r,n,i,c=t.previousSibling,a=c.getAttribute(&quot;data-cfemail&quot;);if(a){for(e=&quot;&quot;,r=parseInt(a.substr(0,2),16),n=2;a.length-n;n+=2)i=parseInt(a.substr(n,2),16)^r,e+=String.fromCharCode(i);e=document.createTextNode(e),c.parentNode.replaceChild(e,c)}}}catch(u){}}();/* ]]&gt; */&lt;/script&gt; \nFormat settings, CABAC : Yes \nFormat settings, ReFrames : 4 frames \nDuration : 23mn 40s \nBit rate : 151 Kbps \nWidth : 656 pixels \nHeight : 368 pixels \nFrame rate : 23.976 fps \nBit depth : 8 bits \nScan type : Progressive \nBits/(Pixel*Frame) : 0.026 \nStream size : 25.6 MiB (60%) \n\n[b]Audio[/b] \nFormat : AAC \nBit rate : 96.0 Kbps \nChannel(s) : 2 channels \nSampling rate : 44.1 KHz \nStream size : 16.3 MiB (38%) \n\n[b]Screens[/b]\n[img]http://i.imgur.com/MeJmWfZ.png[/img]\n[img]http://i.imgur.com/BWr0HzL.png[/img]\n[img]http://i.imgur.com/djcbxs0.png[/img]","torrent":{"xt":"urn:btih:f6d87024e10ee877ecd2bf00cb651b7bf732ff08","amp;dn":"%5BAnimeRG-JRR%5D+Sword+Art+Online+II+-+22+%5BEng+Subbed%5D%5BSD%5D.mp4","amp;tr":["udp%3A%2F%2Ftracker.openbittorrent.com%3A80","udp%3A%2F%2Fopen.demonii.com%3A1337","udp%3A%2F%2Ftracker.coppersurfer.tk%3A6969","udp%3A%2F%2Fexodus.desync.com%3A6969"],"infoHash":"f6d87024e10ee877ecd2bf00cb651b7bf732ff08","infoHashBuffer":{"type":"Buffer","data":[246,216,112,36,225,14,232,119,236,210,191,0,203,101,27,123,247,50,255,8]},"announce":[],"urlList":[]}}